<?xml version="1.0" standalone="no"?>
<!DOCTYPE svg PUBLIC "-//W3C//DTD SVG 20010904//EN"
 "http://www.w3.org/TR/2001/REC-SVG-20010904/DTD/svg10.dtd">
<svg version="1.0" xmlns="http://www.w3.org/2000/svg"
 width="170.000000pt" height="113.000000pt" viewBox="0 0 170.000000 113.000000"
 preserveAspectRatio="xMidYMid meet">
<metadata>
Created by potrace 1.10, written by Peter Selinger 2001-2011
</metadata>
<g transform="translate(0.000000,113.000000) scale(0.100000,-0.100000)"
fill="#000000" stroke="none">
<path d="M514 951 c-17 -10 -40 -31 -52 -46 -22 -27 -39 -91 -29 -102 4 -3 28
5 54 18 36 18 53 35 71 69 39 78 22 101 -44 61z"/>
<path d="M1070 964 c0 -4 9 -21 20 -39 l20 -32 -24 -11 c-13 -6 -35 -26 -49
-44 -25 -33 -53 -105 -44 -114 2 -3 105 -5 228 -5 l224 0 -4 28 c-6 49 -51
115 -95 140 -16 9 -16 12 4 46 13 21 17 37 11 37 -6 0 -19 -15 -28 -34 -14
-31 -19 -33 -40 -25 -32 12 -115 12 -148 -1 -23 -9 -27 -7 -42 25 -15 31 -33
47 -33 29z m215 -96 c3 -3 1 -17 -6 -30 -9 -21 -8 -30 5 -50 9 -14 13 -28 9
-31 -11 -11 -141 -8 -148 4 -4 5 1 19 11 30 15 17 16 22 4 45 -12 22 -12 27 0
35 15 10 115 7 125 -3z m-149 -39 c9 -16 -12 -33 -31 -25 -14 5 -15 9 -5 21
15 18 26 19 36 4z m203 -3 c8 -10 8 -16 -2 -24 -17 -14 -42 2 -34 22 8 20 21
20 36 2z m-250 -50 c9 -11 8 -15 -5 -20 -20 -8 -34 1 -34 20 0 18 24 18 39 0z
m297 3 c9 -16 -10 -31 -30 -23 -13 5 -14 9 -5 20 14 17 25 18 35 3z"/>
<path d="M272 799 c-47 -14 -109 -79 -123 -131 -30 -110 24 -283 112 -363 45
-40 64 -42 156 -14 37 11 49 11 90 -4 74 -26 98 -23 141 22 21 21 51 63 66 91
27 50 28 53 10 63 -92 52 -108 172 -32 246 l32 32 -29 24 c-57 47 -103 51
-201 20 -36 -12 -48 -12 -103 6 -69 21 -72 21 -119 8z m178 -52 c30 0 82 3
115 7 83 10 95 0 68 -56 -12 -24 -25 -60 -28 -81 -4 -20 -11 -40 -16 -43 -16
-9 -10 -22 9 -18 11 3 23 -5 34 -26 9 -16 13 -30 7 -30 -5 0 -13 10 -18 22 -5
15 -10 18 -15 9 -5 -7 8 -26 33 -49 23 -21 41 -45 41 -53 0 -23 -66 -106 -90
-114 -11 -3 -45 2 -75 11 -49 16 -62 16 -103 5 -90 -26 -96 -25 -132 11 -82
81 -125 260 -82 338 10 19 34 46 53 58 30 21 41 23 89 17 30 -4 80 -7 110 -8z"/>
<path d="M891 696 c-8 -9 -11 -57 -9 -146 3 -122 5 -134 24 -147 19 -12 24
-11 45 6 22 18 23 23 20 147 -1 71 -7 135 -13 141 -14 17 -53 16 -67 -1z m63
-159 c4 -15 2 -16 -10 -6 -9 7 -14 8 -14 1 0 -6 5 -14 11 -18 7 -4 7 -10 1
-16 -18 -18 -32 2 -32 43 0 36 1 38 19 27 11 -7 22 -20 25 -31z"/>
<path d="M1476 688 c-11 -18 -14 -52 -13 -146 2 -130 6 -142 53 -142 39 0 44
18 44 151 0 103 -3 131 -16 143 -22 23 -51 20 -68 -6z m44 -139 c0 -57 -4 -88
-10 -84 -5 3 -10 44 -10 91 0 49 4 84 10 84 6 0 10 -37 10 -91z"/>
<path d="M1000 698 c0 -2 -1 -80 -2 -175 -1 -191 2 -203 58 -203 l34 0 0 -68
c0 -73 10 -92 47 -92 35 0 55 40 52 102 l-3 53 38 3 39 3 -6 -59 c-7 -67 9
-102 47 -102 36 0 46 19 46 92 l0 68 33 0 c55 0 57 7 57 200 l0 175 -220 3
c-121 1 -220 1 -220 0z m398 -50 c8 -8 12 -48 12 -114 0 -138 -6 -164 -42
-176 -33 -12 -49 -37 -59 -93 l-6 -40 -2 38 c-1 44 -45 97 -80 97 -35 0 -74
-43 -81 -91 l-7 -44 -2 42 c-1 41 -20 65 -77 99 -16 10 -19 24 -19 97 0 47 -3
83 -7 80 -5 -2 -8 1 -8 6 0 6 10 11 23 11 20 1 20 2 5 11 -18 10 -23 44 -12
73 5 14 31 16 178 16 120 0 176 -4 184 -12z"/>
</g>
</svg>
